# xmcd
#
# Track frame offsets:
#	150
#	16819
#	31284
#	49666
#	66274
#	88302
#	101931
#	116751
#	127495
#	145924
#	160216
#
# Disc length: 2446 seconds
#
# Revision: 1
# Processed by: cddbd v1.4b41PL1 Copyright (c) Steve Scherf et al.
# Submitted via: audiograbber 1.80
#
DISCID=a2098c0b
DTITLE=KERRY MICHAELS - WORKIN' UP A SWEAT
DYEAR=1900
DGENRE=
TTITLE0=OPERATOR
TTITLE1=MY WAY OR THE HIGHWAY
TTITLE2=SOMETHING'S GOT A HOLD ON ME
TTITLE3=WHEN SOMETHING IS WRONG WITH MY BABY
TTITLE4=DROWNING IN A SEA OF LOVE
TTITLE5=I WANT TO DO EVERYTHING FOR YOU
TTITLE6=HEAVEN BOUND
TTITLE7=CAN'T GET BLOOD FROM A TURNIP
TTITLE8=GOTTA SERVE SOMEBODY
TTITLE9=WHAT DO YOU DO
TTITLE10=OUT OF THE RAIN
EXTD=
EXTT0=
EXTT1=
EXTT2=
EXTT3=
EXTT4=
EXTT5=
EXTT6=
EXTT7=
EXTT8=
EXTT9=
EXTT10=
PLAYORDER=
